<svg xmlns="http://www.w3.org/2000/svg" width="600" height="600" viewBox="0 0 600 600" version="1.1"><path d="M 496 248.290 C 496 307.380, 496.091 308.512, 501.782 319.977 C 505.318 327.103, 513.929 335.653, 521.743 339.798 C 528.788 343.535, 538.776 345.957, 547.250 345.983 L 553 346 553 336.628 L 553 327.257 545.250 326.798 C 531.968 326.012, 522.965 320.332, 517.844 309.509 L 515.002 303.500 515.001 248.750 L 515 194 505.500 194 L 496 194 496 248.290 M 422 251.035 C 394.940 255.841, 377.496 281.486, 383.115 308.201 C 386.441 324.015, 398.576 337.460, 414.581 343.064 C 419.510 344.789, 422.340 345.078, 431.500 344.791 C 441.776 344.470, 442.996 344.206, 450.035 340.789 C 466.228 332.929, 477 315.836, 477 298 C 477 285.087, 472.428 274.288, 462.922 264.742 C 455.156 256.945, 447.024 252.650, 437 251.052 C 429.741 249.894, 428.429 249.893, 422 251.035 M 77 252.886 C 68.025 255.787, 62.891 258.919, 56.505 265.388 C 47.131 274.884, 43.049 284.929, 43.049 298.500 C 43.049 312.182, 47.129 322.262, 56.456 331.621 C 63.245 338.432, 69.941 342.257, 79.265 344.648 C 91.254 347.724, 106.642 344.890, 117.461 337.614 C 120.232 335.751, 136.842 320.854, 154.371 304.511 C 189.805 271.474, 191.868 270.011, 203 270.032 C 213.760 270.052, 222.632 275.554, 227.795 285.410 C 230.037 289.690, 230.461 291.773, 230.461 298.500 C 230.461 305.227, 230.037 307.310, 227.795 311.590 C 222.842 321.044, 213.178 327.210, 203.025 327.392 C 199.986 327.446, 196.262 327.147, 194.750 326.726 L 192 325.962 192 335.364 C 192 346.134, 191.836 345.961, 202.040 345.986 C 220.007 346.031, 236.696 335.221, 244.772 318.308 C 248.435 310.636, 248.500 310.292, 248.500 298.500 C 248.500 286.708, 248.435 286.364, 244.772 278.692 C 235.964 260.247, 218.540 250.004, 198.128 251.273 C 190.917 251.722, 188.607 252.363, 181.466 255.902 C 173.960 259.621, 170.120 262.853, 140.838 290.098 C 123.052 306.646, 107.125 321.256, 105.443 322.564 C 100.696 326.258, 91.011 328.383, 84.897 327.071 C 82.149 326.482, 78.579 325.316, 76.964 324.481 C 70.601 321.191, 64.326 314.127, 62.547 308.250 L 61.865 306 82.567 306 L 103.268 306 112.774 297.250 C 118.002 292.438, 124.804 286.192, 127.890 283.370 L 133.500 278.240 128.791 271.370 C 126.201 267.592, 122.432 263.199, 120.416 261.608 C 115.537 257.759, 106.557 253.351, 101 252.079 C 94.187 250.519, 83.174 250.889, 77 252.886 M 302.500 252.404 C 285.476 257.811, 272.653 271.786, 269.105 288.799 C 268.377 292.292, 268 312.660, 268 348.549 L 268 403 277.500 403 L 287 403 287 370.667 C 287 352.883, 287.225 338.109, 287.499 337.834 C 287.774 337.560, 290.884 338.787, 294.410 340.562 C 325.872 356.397, 363 333.399, 363 298.076 C 363 285.182, 359.161 275.223, 350.771 266.352 C 340.583 255.579, 329.807 250.954, 315.161 251.067 C 310.397 251.104, 304.700 251.705, 302.500 252.404 M 83.500 269.876 C 78.850 271.099, 73.822 273.921, 70.162 277.362 C 66.569 280.741, 62.692 287.358, 63.710 288.376 C 64.053 288.719, 72.246 288.979, 81.917 288.954 L 99.500 288.908 105.500 283.426 L 111.500 277.944 109 275.902 C 102.586 270.663, 90.956 267.915, 83.500 269.876 M 306.205 270.894 C 284.933 278.242, 279.640 304.951, 296.514 319.803 C 311.071 332.617, 333.431 327.985, 342.108 310.358 C 345.575 303.316, 345.414 292.510, 341.736 285.377 C 336.735 275.677, 325.993 268.951, 315.635 269.033 C 313.361 269.051, 309.117 269.888, 306.205 270.894 M 422 269.935 C 413.503 272.529, 406.434 278.633, 402.890 286.435 C 399.983 292.835, 400.307 304.217, 403.584 310.793 C 412.244 328.171, 434.443 332.399, 448.879 319.419 C 455.790 313.206, 458.368 307.393, 458.381 298 C 458.393 288.766, 455.460 282.335, 448.401 276.122 C 441.510 270.056, 430.249 267.417, 422 269.935 M 325 371 L 325 379.110 329.672 378.805 C 334.978 378.459, 337.092 376, 332.083 376 C 328.493 376, 327.727 373.326, 331.172 372.820 C 334.129 372.384, 334.643 370.232, 331.886 369.827 C 328.565 369.340, 328.425 367.197, 331.691 366.822 C 333.378 366.629, 334.500 365.901, 334.500 365 C 334.500 363.920, 333.170 363.415, 329.750 363.195 L 325 362.890 325 371 M 385.688 363.646 C 385.309 364.024, 385 367.666, 385 371.740 C 385 378.256, 385.211 379.106, 386.750 378.810 C 388.229 378.525, 388.500 377.325, 388.500 371.070 C 388.500 364.241, 387.564 361.770, 385.688 363.646 M 413.250 364.098 C 409.820 365.375, 410.234 369.657, 413.994 371.797 C 415.640 372.733, 416.990 374.063, 416.994 374.750 C 417.001 376.265, 414.375 376.415, 413.470 374.951 C 413.032 374.242, 412.336 374.306, 411.321 375.149 C 409.997 376.247, 410.030 376.549, 411.601 377.697 C 413.833 379.329, 418.216 379.384, 419.800 377.800 C 422.026 375.574, 421.185 372.012, 418.006 370.203 C 414.459 368.185, 414.099 366.749, 417.250 367.187 C 418.651 367.382, 419.500 366.977, 419.500 366.115 C 419.500 364.215, 415.983 363.080, 413.250 364.098 M 472.543 363.931 C 471.803 365.128, 473.684 366.313, 475.016 365.490 C 476.135 364.799, 475.400 363, 474 363 C 473.515 363, 472.859 363.419, 472.543 363.931 M 338.835 367.684 C 335.364 368.580, 335.989 374, 339.563 374 C 340.289 374, 341.184 374.489, 341.553 375.086 C 341.990 375.794, 341.257 376.055, 339.450 375.836 C 335.925 375.409, 335 377.711, 338.357 378.553 C 342.251 379.531, 345 378.229, 345 375.408 C 345 373.707, 344.231 372.658, 342.500 372 C 339.526 370.869, 339.137 369.541, 341.999 370.289 C 343.724 370.741, 345.856 369.446, 344.850 368.558 C 344.016 367.821, 340.363 367.290, 338.835 367.684 M 349.893 368.360 C 345.044 370.764, 347.126 379, 352.584 379 C 355.590 379, 358.684 376.041, 356.857 374.912 C 356.148 374.473, 354.967 374.613, 354.233 375.221 C 353.236 376.049, 352.504 375.932, 351.331 374.760 C 349.120 372.548, 350.637 370.677, 354.083 371.367 C 357.188 371.988, 358.705 370.789, 356.739 369.269 C 354.395 367.456, 352.281 367.175, 349.893 368.360 M 374.893 368.359 C 373.125 369.236, 372.419 370.517, 372.190 373.267 C 371.928 376.412, 372.265 377.163, 374.366 378.121 C 377.447 379.525, 382 378.499, 382 376.401 C 382 375.199, 381.333 374.988, 379.095 375.479 C 377.429 375.845, 375.911 375.666, 375.536 375.059 C 375.117 374.380, 376.340 374, 378.941 374 C 382.245 374, 383 373.651, 383 372.122 C 383 368.659, 378.501 366.571, 374.893 368.359 M 393.242 368.543 C 391.804 369.550, 391 371.144, 391 372.985 C 391 377.191, 393.333 379.012, 398.302 378.684 L 402.500 378.407 402.802 373.204 C 403.090 368.255, 402.984 368, 400.634 368 C 399.275 368, 397.561 367.769, 396.824 367.486 C 396.088 367.203, 394.476 367.679, 393.242 368.543 M 360 372.300 C 360 377.098, 361.314 379, 364.629 379 C 367.987 379, 370 376.350, 370 371.929 C 370 368.667, 369.661 368, 368 368 C 366.327 368, 366 368.667, 366 372.083 C 366 377.294, 363.635 376.948, 363.190 371.673 C 362.725 366.171, 360 366.707, 360 372.300 M 423 372.300 C 423 377.239, 424.314 379, 428 379 C 431.686 379, 433 377.239, 433 372.300 C 433 368.667, 432.690 368, 431 368 C 429.327 368, 429 368.667, 429 372.083 C 429 377.294, 426.635 376.948, 426.190 371.673 C 425.725 366.171, 423 366.707, 423 372.300 M 436 376 C 436 382.444, 436.292 384, 437.500 384 C 438.433 384, 439 383.056, 439 381.500 C 439 379.419, 439.477 379, 441.845 379 C 447.017 379, 449.908 373.051, 446.429 369.571 C 445.473 368.616, 443.121 368, 440.429 368 L 436 368 436 376 M 450.571 369.571 C 447.070 373.073, 449.983 379, 455.206 379 C 457.772 379, 460.506 376.839, 459.373 375.707 C 459.038 375.371, 457.467 375.357, 455.882 375.674 C 454.072 376.036, 453 375.831, 453 375.125 C 453 374.479, 454.704 374, 457 374 C 461.414 374, 461.738 373.499, 459.443 370.223 C 457.595 367.583, 452.904 367.239, 450.571 369.571 M 463 373.618 C 463 377.735, 463.352 379, 464.500 379 C 465.555 379, 466 377.934, 466 375.406 C 466 372.697, 466.475 371.689, 467.931 371.308 C 468.993 371.030, 470.093 370.201, 470.375 369.465 C 470.752 368.482, 469.842 368.141, 466.944 368.181 L 463 368.236 463 373.618 M 472 373.500 C 472 378.333, 472.242 379, 474 379 C 475.758 379, 476 378.333, 476 373.500 C 476 368.667, 475.758 368, 474 368 C 472.242 368, 472 368.667, 472 373.500 M 479.571 369.571 C 477.536 371.607, 477.562 375.419, 479.625 377.483 C 482.089 379.947, 487.119 379.070, 488.909 375.865 C 490.227 373.506, 490.202 372.957, 488.667 370.615 C 486.680 367.583, 482.087 367.056, 479.571 369.571 M 492 373.500 C 492 377.722, 492.348 379, 493.500 379 C 494.466 379, 495.005 378.021, 495.015 376.250 C 495.033 373.006, 495.860 371.590, 498.250 370.708 C 501.384 369.552, 500.095 368, 496 368 L 492 368 492 373.500 M 394.441 372.096 C 394.068 372.699, 394.492 373.920, 395.382 374.810 C 396.873 376.301, 397.127 376.301, 398.618 374.810 C 400.508 372.920, 399.693 371, 397 371 C 395.965 371, 394.813 371.493, 394.441 372.096 M 439.364 372.493 C 439.018 373.396, 439.214 374.614, 439.800 375.200 C 441.324 376.724, 444.210 375.331, 443.812 373.265 C 443.369 370.963, 440.165 370.407, 439.364 372.493 M 481.364 372.493 C 481.018 373.396, 481.214 374.614, 481.800 375.200 C 483.324 376.724, 486.210 375.331, 485.812 373.265 C 485.369 370.963, 482.165 370.407, 481.364 372.493 M 377.473 387.030 C 376.486 388.120, 375.938 389.271, 376.254 389.587 C 377.011 390.344, 381 388.189, 381 387.024 C 381 385.124, 379.195 385.127, 377.473 387.030 M 358.667 386.667 C 357.516 387.817, 357.938 389, 359.500 389 C 360.325 389, 361 388.325, 361 387.500 C 361 385.938, 359.817 385.516, 358.667 386.667 M 411.667 386.667 C 410.516 387.817, 410.938 389, 412.500 389 C 413.325 389, 414 388.325, 414 387.500 C 414 385.938, 412.817 385.516, 411.667 386.667 M 498.639 386.694 C 497.513 387.820, 497.954 389, 499.500 389 C 500.325 389, 501 388.577, 501 388.059 C 501 386.798, 499.438 385.895, 498.639 386.694 M 325 395.073 C 325 402.222, 325.200 403.109, 326.750 402.815 C 327.894 402.598, 328.607 401.382, 328.809 399.301 C 329.075 396.558, 329.545 396.075, 332.208 395.809 C 336.236 395.406, 337.780 393.007, 336.217 389.578 C 335.182 387.306, 334.448 387, 330.021 387 L 325 387 325 395.073 M 351.667 387.667 C 350.689 388.644, 350.883 400.266, 351.904 401.878 C 353.736 404.772, 355 401.737, 355 394.441 C 355 388.907, 354.658 387, 353.667 387 C 352.933 387, 352.033 387.300, 351.667 387.667 M 364.559 390.182 C 363.635 392.033, 363.365 393.607, 363.911 393.945 C 364.428 394.265, 364.997 396.320, 365.176 398.513 C 365.398 401.246, 365.972 402.500, 367 402.500 C 368.028 402.500, 368.602 401.246, 368.824 398.513 C 369.003 396.320, 369.572 394.265, 370.089 393.945 C 371.149 393.290, 368.352 387, 367 387 C 366.531 387, 365.432 388.432, 364.559 390.182 M 458 389.361 C 458 391.350, 457.599 391.646, 455.465 391.238 C 450.223 390.236, 446.713 397.675, 450.750 401.232 C 451.753 402.115, 454.315 402.764, 456.750 402.750 L 461 402.727 461 394.864 C 461 388.540, 460.706 387, 459.500 387 C 458.590 387, 458 387.929, 458 389.361 M 477.206 394.668 C 477.438 400.833, 477.819 402.500, 479 402.500 C 480.200 402.500, 480.500 401.002, 480.500 395.014 C 480.500 388.610, 480.241 387.477, 478.706 387.182 C 477.086 386.870, 476.941 387.591, 477.206 394.668 M 488 395.060 L 488 403.121 491.750 402.810 C 495.955 402.462, 497.086 399.725, 493.250 399.180 C 491.206 398.890, 491 398.319, 491 392.930 C 491 388.326, 490.665 387, 489.500 387 C 488.291 387, 488 388.562, 488 395.060 M 505 389 C 505 390.100, 504.550 391, 504 391 C 503.450 391, 503 391.675, 503 392.500 C 503 393.325, 503.450 394, 504 394 C 504.550 394, 505 396.025, 505 398.500 C 505 401.680, 505.409 403, 506.393 403 C 508.069 403, 509 400.848, 509 396.977 C 509 395.405, 509.414 393.862, 509.919 393.550 C 511.223 392.744, 508.160 387, 506.427 387 C 505.642 387, 505 387.900, 505 389 M 549 395 C 549 401.444, 549.292 403, 550.500 403 C 551.708 403, 552 401.444, 552 395 C 552 388.556, 551.708 387, 550.500 387 C 549.292 387, 549 388.556, 549 395 M 329 391.500 C 329 392.333, 329.889 393, 331 393 C 332.111 393, 333 392.333, 333 391.500 C 333 390.667, 332.111 390, 331 390 C 329.889 390, 329 390.667, 329 391.500 M 339 393 C 337.900 394.100, 337 395.900, 337 397 C 337 399.479, 340.391 403, 342.777 403 C 345.969 403, 349 400.077, 349 397 C 349 391.743, 342.755 389.245, 339 393 M 358.200 396.512 C 358.365 399.543, 358.950 402.023, 359.500 402.023 C 360.050 402.023, 360.635 399.543, 360.800 396.512 C 361.045 392.001, 360.809 391, 359.500 391 C 358.191 391, 357.955 392.001, 358.200 396.512 M 373.571 392.571 C 370.238 395.905, 372.564 403, 376.990 403 C 379.950 403, 382 401.901, 382 400.314 C 382 399.208, 381.275 399, 379.095 399.479 C 377.429 399.845, 375.911 399.666, 375.536 399.059 C 375.117 398.380, 376.340 398, 378.941 398 C 382.220 398, 383 397.645, 383 396.155 C 383 391.872, 376.675 389.468, 373.571 392.571 M 386 393 C 384.900 394.100, 384 395.900, 384 397 C 384 399.493, 387.395 403, 389.809 403 C 390.804 403, 392.491 402.355, 393.559 401.567 C 395.079 400.446, 395.238 399.869, 394.292 398.910 C 393.340 397.943, 392.769 397.947, 391.586 398.928 C 389.756 400.448, 388 399.527, 388 397.048 C 388 394.811, 390.342 393.742, 391.878 395.278 C 392.707 396.107, 393.326 396.069, 394.250 395.133 C 395.252 394.117, 395.115 393.581, 393.559 392.433 C 390.875 390.452, 388.359 390.641, 386 393 M 398 397.201 C 398 401.526, 398.344 403.054, 399.250 402.756 C 399.938 402.531, 400.645 400.806, 400.821 398.923 C 401.461 392.104, 404.953 392.867, 404.985 399.833 C 405.007 404.765, 407.432 403.277, 407.811 398.098 C 408.206 392.708, 406.851 391.114, 401.930 391.182 L 398 391.236 398 397.201 M 411 397 C 411 401.667, 411.333 403, 412.500 403 C 413.667 403, 414 401.667, 414 397 C 414 392.333, 413.667 391, 412.500 391 C 411.333 391, 411 392.333, 411 397 M 419.400 391.765 C 413.234 395.882, 418.401 405.532, 424.907 402.050 C 426.058 401.434, 427 400.522, 427 400.024 C 427 398.508, 424.891 397.709, 423.791 398.809 C 422.342 400.258, 420 399.140, 420 397 C 420 394.802, 422.356 393.756, 423.878 395.278 C 424.707 396.107, 425.302 396.098, 426.158 395.242 C 428.706 392.694, 422.665 389.585, 419.400 391.765 M 430.632 392.854 C 426.488 397.433, 429.977 403.176, 436.546 402.586 L 440.500 402.231 440.500 396.916 L 440.500 391.601 436.382 391.325 C 433.429 391.128, 431.804 391.560, 430.632 392.854 M 465 393 C 463.900 394.100, 463 395.900, 463 397 C 463 401.438, 469.821 404.779, 472.800 401.800 C 474.776 399.824, 474.164 398.742, 471.454 399.422 C 470.054 399.774, 468.366 399.710, 467.704 399.281 C 466.975 398.808, 468.046 398.303, 470.422 398 C 475.071 397.407, 475.885 395.885, 473.063 393.063 C 470.457 390.457, 467.565 390.435, 465 393 M 498 397.083 C 498 405.161, 500.369 404.812, 500.800 396.671 C 501.042 392.087, 500.803 391, 499.550 391 C 498.320 391, 498 392.256, 498 397.083 M 513 393 C 511.900 394.100, 511 395.900, 511 397 C 511 399.714, 514.475 403, 517.345 403 C 522.562 403, 525.019 395.527, 520.777 392.557 C 517.786 390.462, 515.403 390.597, 513 393 M 525.328 392.587 C 525.078 393.238, 525.015 395.735, 525.187 398.136 C 525.573 403.516, 528.321 404.361, 528.813 399.251 C 529.002 397.292, 529.895 395.591, 531.063 394.966 C 532.128 394.396, 533 393.315, 533 392.564 C 533 390.843, 525.989 390.864, 525.328 392.587 M 535.572 392.920 C 534.708 393.876, 534 395.790, 534 397.174 C 534 400.878, 536.854 402.959, 541.531 402.664 L 545.500 402.414 545.795 396.866 L 546.090 391.318 541.617 391.251 C 538.574 391.205, 536.642 391.738, 535.572 392.920 M 341.667 394.667 C 340.617 395.717, 340.888 398.813, 342.096 399.559 C 342.699 399.932, 343.898 399.531, 344.760 398.669 C 346.052 397.377, 346.102 396.827, 345.042 395.550 C 343.648 393.870, 342.709 393.625, 341.667 394.667 M 432.958 395.550 C 431.896 396.831, 431.961 397.390, 433.336 398.764 C 434.888 400.317, 435.112 400.317, 436.664 398.764 C 438.039 397.390, 438.104 396.831, 437.042 395.550 C 436.334 394.698, 435.415 394, 435 394 C 434.585 394, 433.666 394.698, 432.958 395.550 M 453.667 394.667 C 452.617 395.717, 452.888 398.813, 454.096 399.559 C 454.699 399.932, 455.898 399.531, 456.760 398.669 C 458.052 397.377, 458.102 396.827, 457.042 395.550 C 455.648 393.870, 454.709 393.625, 453.667 394.667 M 515.667 394.667 C 514.617 395.717, 514.888 398.813, 516.096 399.559 C 516.699 399.932, 517.898 399.531, 518.760 398.669 C 520.052 397.377, 520.102 396.827, 519.042 395.550 C 517.648 393.870, 516.709 393.625, 515.667 394.667 M 537.958 395.550 C 536.896 396.831, 536.961 397.390, 538.336 398.764 C 539.888 400.317, 540.112 400.317, 541.664 398.764 C 543.039 397.390, 543.104 396.831, 542.042 395.550 C 541.334 394.698, 540.415 394, 540 394 C 539.585 394, 538.666 394.698, 537.958 395.550" stroke="none" fill="#233261" fill-rule="evenodd"/><path d="M 0 300.002 L 0 600.003 300.250 599.752 L 600.500 599.500 600.752 299.750 L 601.003 0 300.502 0 L 0 0 0 300.002 M 0.493 300.500 C 0.493 465.500, 0.609 532.851, 0.750 450.169 C 0.891 367.487, 0.891 232.487, 0.750 150.169 C 0.609 67.851, 0.493 135.500, 0.493 300.500 M 496 248.290 C 496 307.380, 496.091 308.512, 501.782 319.977 C 505.318 327.103, 513.929 335.653, 521.743 339.798 C 528.788 343.535, 538.776 345.957, 547.250 345.983 L 553 346 553 336.628 L 553 327.257 545.250 326.798 C 531.968 326.012, 522.965 320.332, 517.844 309.509 L 515.002 303.500 515.001 248.750 L 515 194 505.500 194 L 496 194 496 248.290 M 422 251.035 C 394.940 255.841, 377.496 281.486, 383.115 308.201 C 386.441 324.015, 398.576 337.460, 414.581 343.064 C 419.510 344.789, 422.340 345.078, 431.500 344.791 C 441.776 344.470, 442.996 344.206, 450.035 340.789 C 466.228 332.929, 477 315.836, 477 298 C 477 285.087, 472.428 274.288, 462.922 264.742 C 455.156 256.945, 447.024 252.650, 437 251.052 C 429.741 249.894, 428.429 249.893, 422 251.035 M 77 252.886 C 68.025 255.787, 62.891 258.919, 56.505 265.388 C 47.131 274.884, 43.049 284.929, 43.049 298.500 C 43.049 312.182, 47.129 322.262, 56.456 331.621 C 63.245 338.432, 69.941 342.257, 79.265 344.648 C 91.254 347.724, 106.642 344.890, 117.461 337.614 C 120.232 335.751, 136.842 320.854, 154.371 304.511 C 189.805 271.474, 191.868 270.011, 203 270.032 C 213.760 270.052, 222.632 275.554, 227.795 285.410 C 230.037 289.690, 230.461 291.773, 230.461 298.500 C 230.461 305.227, 230.037 307.310, 227.795 311.590 C 222.842 321.044, 213.178 327.210, 203.025 327.392 C 199.986 327.446, 196.262 327.147, 194.750 326.726 L 192 325.962 192 335.364 C 192 346.134, 191.836 345.961, 202.040 345.986 C 220.007 346.031, 236.696 335.221, 244.772 318.308 C 248.435 310.636, 248.500 310.292, 248.500 298.500 C 248.500 286.708, 248.435 286.364, 244.772 278.692 C 235.964 260.247, 218.540 250.004, 198.128 251.273 C 190.917 251.722, 188.607 252.363, 181.466 255.902 C 173.960 259.621, 170.120 262.853, 140.838 290.098 C 123.052 306.646, 107.125 321.256, 105.443 322.564 C 100.696 326.258, 91.011 328.383, 84.897 327.071 C 82.149 326.482, 78.579 325.316, 76.964 324.481 C 70.601 321.191, 64.326 314.127, 62.547 308.250 L 61.865 306 82.567 306 L 103.268 306 112.774 297.250 C 118.002 292.438, 124.804 286.192, 127.890 283.370 L 133.500 278.240 128.791 271.370 C 126.201 267.592, 122.432 263.199, 120.416 261.608 C 115.537 257.759, 106.557 253.351, 101 252.079 C 94.187 250.519, 83.174 250.889, 77 252.886 M 302.500 252.404 C 285.476 257.811, 272.653 271.786, 269.105 288.799 C 268.377 292.292, 268 312.660, 268 348.549 L 268 403 277.500 403 L 287 403 287 370.667 C 287 352.883, 287.225 338.109, 287.499 337.834 C 287.774 337.560, 290.884 338.787, 294.410 340.562 C 325.872 356.397, 363 333.399, 363 298.076 C 363 285.182, 359.161 275.223, 350.771 266.352 C 340.583 255.579, 329.807 250.954, 315.161 251.067 C 310.397 251.104, 304.700 251.705, 302.500 252.404 M 83.500 269.876 C 78.850 271.099, 73.822 273.921, 70.162 277.362 C 66.569 280.741, 62.692 287.358, 63.710 288.376 C 64.053 288.719, 72.246 288.979, 81.917 288.954 L 99.500 288.908 105.500 283.426 L 111.500 277.944 109 275.902 C 102.586 270.663, 90.956 267.915, 83.500 269.876 M 306.205 270.894 C 284.933 278.242, 279.640 304.951, 296.514 319.803 C 311.071 332.617, 333.431 327.985, 342.108 310.358 C 345.575 303.316, 345.414 292.510, 341.736 285.377 C 336.735 275.677, 325.993 268.951, 315.635 269.033 C 313.361 269.051, 309.117 269.888, 306.205 270.894 M 422 269.935 C 413.503 272.529, 406.434 278.633, 402.890 286.435 C 399.983 292.835, 400.307 304.217, 403.584 310.793 C 412.244 328.171, 434.443 332.399, 448.879 319.419 C 455.790 313.206, 458.368 307.393, 458.381 298 C 458.393 288.766, 455.460 282.335, 448.401 276.122 C 441.510 270.056, 430.249 267.417, 422 269.935 M 325 371 L 325 379.110 329.672 378.805 C 334.978 378.459, 337.092 376, 332.083 376 C 328.493 376, 327.727 373.326, 331.172 372.820 C 334.129 372.384, 334.643 370.232, 331.886 369.827 C 328.565 369.340, 328.425 367.197, 331.691 366.822 C 333.378 366.629, 334.500 365.901, 334.500 365 C 334.500 363.920, 333.170 363.415, 329.750 363.195 L 325 362.890 325 371 M 385.688 363.646 C 385.309 364.024, 385 367.666, 385 371.740 C 385 378.256, 385.211 379.106, 386.750 378.810 C 388.229 378.525, 388.500 377.325, 388.500 371.070 C 388.500 364.241, 387.564 361.770, 385.688 363.646 M 413.250 364.098 C 409.820 365.375, 410.234 369.657, 413.994 371.797 C 415.640 372.733, 416.990 374.063, 416.994 374.750 C 417.001 376.265, 414.375 376.415, 413.470 374.951 C 413.032 374.242, 412.336 374.306, 411.321 375.149 C 409.997 376.247, 410.030 376.549, 411.601 377.697 C 413.833 379.329, 418.216 379.384, 419.800 377.800 C 422.026 375.574, 421.185 372.012, 418.006 370.203 C 414.459 368.185, 414.099 366.749, 417.250 367.187 C 418.651 367.382, 419.500 366.977, 419.500 366.115 C 419.500 364.215, 415.983 363.080, 413.250 364.098 M 472.543 363.931 C 471.803 365.128, 473.684 366.313, 475.016 365.490 C 476.135 364.799, 475.400 363, 474 363 C 473.515 363, 472.859 363.419, 472.543 363.931 M 338.835 367.684 C 335.364 368.580, 335.989 374, 339.563 374 C 340.289 374, 341.184 374.489, 341.553 375.086 C 341.990 375.794, 341.257 376.055, 339.450 375.836 C 335.925 375.409, 335 377.711, 338.357 378.553 C 342.251 379.531, 345 378.229, 345 375.408 C 345 373.707, 344.231 372.658, 342.500 372 C 339.526 370.869, 339.137 369.541, 341.999 370.289 C 343.724 370.741, 345.856 369.446, 344.850 368.558 C 344.016 367.821, 340.363 367.290, 338.835 367.684 M 349.893 368.360 C 345.044 370.764, 347.126 379, 352.584 379 C 355.590 379, 358.684 376.041, 356.857 374.912 C 356.148 374.473, 354.967 374.613, 354.233 375.221 C 353.236 376.049, 352.504 375.932, 351.331 374.760 C 349.120 372.548, 350.637 370.677, 354.083 371.367 C 357.188 371.988, 358.705 370.789, 356.739 369.269 C 354.395 367.456, 352.281 367.175, 349.893 368.360 M 374.893 368.359 C 373.125 369.236, 372.419 370.517, 372.190 373.267 C 371.928 376.412, 372.265 377.163, 374.366 378.121 C 377.447 379.525, 382 378.499, 382 376.401 C 382 375.199, 381.333 374.988, 379.095 375.479 C 377.429 375.845, 375.911 375.666, 375.536 375.059 C 375.117 374.380, 376.340 374, 378.941 374 C 382.245 374, 383 373.651, 383 372.122 C 383 368.659, 378.501 366.571, 374.893 368.359 M 393.242 368.543 C 391.804 369.550, 391 371.144, 391 372.985 C 391 377.191, 393.333 379.012, 398.302 378.684 L 402.500 378.407 402.802 373.204 C 403.090 368.255, 402.984 368, 400.634 368 C 399.275 368, 397.561 367.769, 396.824 367.486 C 396.088 367.203, 394.476 367.679, 393.242 368.543 M 360 372.300 C 360 377.098, 361.314 379, 364.629 379 C 367.987 379, 370 376.350, 370 371.929 C 370 368.667, 369.661 368, 368 368 C 366.327 368, 366 368.667, 366 372.083 C 366 377.294, 363.635 376.948, 363.190 371.673 C 362.725 366.171, 360 366.707, 360 372.300 M 423 372.300 C 423 377.239, 424.314 379, 428 379 C 431.686 379, 433 377.239, 433 372.300 C 433 368.667, 432.690 368, 431 368 C 429.327 368, 429 368.667, 429 372.083 C 429 377.294, 426.635 376.948, 426.190 371.673 C 425.725 366.171, 423 366.707, 423 372.300 M 436 376 C 436 382.444, 436.292 384, 437.500 384 C 438.433 384, 439 383.056, 439 381.500 C 439 379.419, 439.477 379, 441.845 379 C 447.017 379, 449.908 373.051, 446.429 369.571 C 445.473 368.616, 443.121 368, 440.429 368 L 436 368 436 376 M 450.571 369.571 C 447.070 373.073, 449.983 379, 455.206 379 C 457.772 379, 460.506 376.839, 459.373 375.707 C 459.038 375.371, 457.467 375.357, 455.882 375.674 C 454.072 376.036, 453 375.831, 453 375.125 C 453 374.479, 454.704 374, 457 374 C 461.414 374, 461.738 373.499, 459.443 370.223 C 457.595 367.583, 452.904 367.239, 450.571 369.571 M 463 373.618 C 463 377.735, 463.352 379, 464.500 379 C 465.555 379, 466 377.934, 466 375.406 C 466 372.697, 466.475 371.689, 467.931 371.308 C 468.993 371.030, 470.093 370.201, 470.375 369.465 C 470.752 368.482, 469.842 368.141, 466.944 368.181 L 463 368.236 463 373.618 M 472 373.500 C 472 378.333, 472.242 379, 474 379 C 475.758 379, 476 378.333, 476 373.500 C 476 368.667, 475.758 368, 474 368 C 472.242 368, 472 368.667, 472 373.500 M 479.571 369.571 C 477.536 371.607, 477.562 375.419, 479.625 377.483 C 482.089 379.947, 487.119 379.070, 488.909 375.865 C 490.227 373.506, 490.202 372.957, 488.667 370.615 C 486.680 367.583, 482.087 367.056, 479.571 369.571 M 492 373.500 C 492 377.722, 492.348 379, 493.500 379 C 494.466 379, 495.005 378.021, 495.015 376.250 C 495.033 373.006, 495.860 371.590, 498.250 370.708 C 501.384 369.552, 500.095 368, 496 368 L 492 368 492 373.500 M 394.441 372.096 C 394.068 372.699, 394.492 373.920, 395.382 374.810 C 396.873 376.301, 397.127 376.301, 398.618 374.810 C 400.508 372.920, 399.693 371, 397 371 C 395.965 371, 394.813 371.493, 394.441 372.096 M 439.364 372.493 C 439.018 373.396, 439.214 374.614, 439.800 375.200 C 441.324 376.724, 444.210 375.331, 443.812 373.265 C 443.369 370.963, 440.165 370.407, 439.364 372.493 M 481.364 372.493 C 481.018 373.396, 481.214 374.614, 481.800 375.200 C 483.324 376.724, 486.210 375.331, 485.812 373.265 C 485.369 370.963, 482.165 370.407, 481.364 372.493 M 377.473 387.030 C 376.486 388.120, 375.938 389.271, 376.254 389.587 C 377.011 390.344, 381 388.189, 381 387.024 C 381 385.124, 379.195 385.127, 377.473 387.030 M 358.667 386.667 C 357.516 387.817, 357.938 389, 359.500 389 C 360.325 389, 361 388.325, 361 387.500 C 361 385.938, 359.817 385.516, 358.667 386.667 M 411.667 386.667 C 410.516 387.817, 410.938 389, 412.500 389 C 413.325 389, 414 388.325, 414 387.500 C 414 385.938, 412.817 385.516, 411.667 386.667 M 498.639 386.694 C 497.513 387.820, 497.954 389, 499.500 389 C 500.325 389, 501 388.577, 501 388.059 C 501 386.798, 499.438 385.895, 498.639 386.694 M 325 395.073 C 325 402.222, 325.200 403.109, 326.750 402.815 C 327.894 402.598, 328.607 401.382, 328.809 399.301 C 329.075 396.558, 329.545 396.075, 332.208 395.809 C 336.236 395.406, 337.780 393.007, 336.217 389.578 C 335.182 387.306, 334.448 387, 330.021 387 L 325 387 325 395.073 M 351.667 387.667 C 350.689 388.644, 350.883 400.266, 351.904 401.878 C 353.736 404.772, 355 401.737, 355 394.441 C 355 388.907, 354.658 387, 353.667 387 C 352.933 387, 352.033 387.300, 351.667 387.667 M 364.559 390.182 C 363.635 392.033, 363.365 393.607, 363.911 393.945 C 364.428 394.265, 364.997 396.320, 365.176 398.513 C 365.398 401.246, 365.972 402.500, 367 402.500 C 368.028 402.500, 368.602 401.246, 368.824 398.513 C 369.003 396.320, 369.572 394.265, 370.089 393.945 C 371.149 393.290, 368.352 387, 367 387 C 366.531 387, 365.432 388.432, 364.559 390.182 M 458 389.361 C 458 391.350, 457.599 391.646, 455.465 391.238 C 450.223 390.236, 446.713 397.675, 450.750 401.232 C 451.753 402.115, 454.315 402.764, 456.750 402.750 L 461 402.727 461 394.864 C 461 388.540, 460.706 387, 459.500 387 C 458.590 387, 458 387.929, 458 389.361 M 477.206 394.668 C 477.438 400.833, 477.819 402.500, 479 402.500 C 480.200 402.500, 480.500 401.002, 480.500 395.014 C 480.500 388.610, 480.241 387.477, 478.706 387.182 C 477.086 386.870, 476.941 387.591, 477.206 394.668 M 488 395.060 L 488 403.121 491.750 402.810 C 495.955 402.462, 497.086 399.725, 493.250 399.180 C 491.206 398.890, 491 398.319, 491 392.930 C 491 388.326, 490.665 387, 489.500 387 C 488.291 387, 488 388.562, 488 395.060 M 505 389 C 505 390.100, 504.550 391, 504 391 C 503.450 391, 503 391.675, 503 392.500 C 503 393.325, 503.450 394, 504 394 C 504.550 394, 505 396.025, 505 398.500 C 505 401.680, 505.409 403, 506.393 403 C 508.069 403, 509 400.848, 509 396.977 C 509 395.405, 509.414 393.862, 509.919 393.550 C 511.223 392.744, 508.160 387, 506.427 387 C 505.642 387, 505 387.900, 505 389 M 549 395 C 549 401.444, 549.292 403, 550.500 403 C 551.708 403, 552 401.444, 552 395 C 552 388.556, 551.708 387, 550.500 387 C 549.292 387, 549 388.556, 549 395 M 329 391.500 C 329 392.333, 329.889 393, 331 393 C 332.111 393, 333 392.333, 333 391.500 C 333 390.667, 332.111 390, 331 390 C 329.889 390, 329 390.667, 329 391.500 M 339 393 C 337.900 394.100, 337 395.900, 337 397 C 337 399.479, 340.391 403, 342.777 403 C 345.969 403, 349 400.077, 349 397 C 349 391.743, 342.755 389.245, 339 393 M 358.200 396.512 C 358.365 399.543, 358.950 402.023, 359.500 402.023 C 360.050 402.023, 360.635 399.543, 360.800 396.512 C 361.045 392.001, 360.809 391, 359.500 391 C 358.191 391, 357.955 392.001, 358.200 396.512 M 373.571 392.571 C 370.238 395.905, 372.564 403, 376.990 403 C 379.950 403, 382 401.901, 382 400.314 C 382 399.208, 381.275 399, 379.095 399.479 C 377.429 399.845, 375.911 399.666, 375.536 399.059 C 375.117 398.380, 376.340 398, 378.941 398 C 382.220 398, 383 397.645, 383 396.155 C 383 391.872, 376.675 389.468, 373.571 392.571 M 386 393 C 384.900 394.100, 384 395.900, 384 397 C 384 399.493, 387.395 403, 389.809 403 C 390.804 403, 392.491 402.355, 393.559 401.567 C 395.079 400.446, 395.238 399.869, 394.292 398.910 C 393.340 397.943, 392.769 397.947, 391.586 398.928 C 389.756 400.448, 388 399.527, 388 397.048 C 388 394.811, 390.342 393.742, 391.878 395.278 C 392.707 396.107, 393.326 396.069, 394.250 395.133 C 395.252 394.117, 395.115 393.581, 393.559 392.433 C 390.875 390.452, 388.359 390.641, 386 393 M 398 397.201 C 398 401.526, 398.344 403.054, 399.250 402.756 C 399.938 402.531, 400.645 400.806, 400.821 398.923 C 401.461 392.104, 404.953 392.867, 404.985 399.833 C 405.007 404.765, 407.432 403.277, 407.811 398.098 C 408.206 392.708, 406.851 391.114, 401.930 391.182 L 398 391.236 398 397.201 M 411 397 C 411 401.667, 411.333 403, 412.500 403 C 413.667 403, 414 401.667, 414 397 C 414 392.333, 413.667 391, 412.500 391 C 411.333 391, 411 392.333, 411 397 M 419.400 391.765 C 413.234 395.882, 418.401 405.532, 424.907 402.050 C 426.058 401.434, 427 400.522, 427 400.024 C 427 398.508, 424.891 397.709, 423.791 398.809 C 422.342 400.258, 420 399.140, 420 397 C 420 394.802, 422.356 393.756, 423.878 395.278 C 424.707 396.107, 425.302 396.098, 426.158 395.242 C 428.706 392.694, 422.665 389.585, 419.400 391.765 M 430.632 392.854 C 426.488 397.433, 429.977 403.176, 436.546 402.586 L 440.500 402.231 440.500 396.916 L 440.500 391.601 436.382 391.325 C 433.429 391.128, 431.804 391.560, 430.632 392.854 M 465 393 C 463.900 394.100, 463 395.900, 463 397 C 463 401.438, 469.821 404.779, 472.800 401.800 C 474.776 399.824, 474.164 398.742, 471.454 399.422 C 470.054 399.774, 468.366 399.710, 467.704 399.281 C 466.975 398.808, 468.046 398.303, 470.422 398 C 475.071 397.407, 475.885 395.885, 473.063 393.063 C 470.457 390.457, 467.565 390.435, 465 393 M 498 397.083 C 498 405.161, 500.369 404.812, 500.800 396.671 C 501.042 392.087, 500.803 391, 499.550 391 C 498.320 391, 498 392.256, 498 397.083 M 513 393 C 511.900 394.100, 511 395.900, 511 397 C 511 399.714, 514.475 403, 517.345 403 C 522.562 403, 525.019 395.527, 520.777 392.557 C 517.786 390.462, 515.403 390.597, 513 393 M 525.328 392.587 C 525.078 393.238, 525.015 395.735, 525.187 398.136 C 525.573 403.516, 528.321 404.361, 528.813 399.251 C 529.002 397.292, 529.895 395.591, 531.063 394.966 C 532.128 394.396, 533 393.315, 533 392.564 C 533 390.843, 525.989 390.864, 525.328 392.587 M 535.572 392.920 C 534.708 393.876, 534 395.790, 534 397.174 C 534 400.878, 536.854 402.959, 541.531 402.664 L 545.500 402.414 545.795 396.866 L 546.090 391.318 541.617 391.251 C 538.574 391.205, 536.642 391.738, 535.572 392.920 M 341.667 394.667 C 340.617 395.717, 340.888 398.813, 342.096 399.559 C 342.699 399.932, 343.898 399.531, 344.760 398.669 C 346.052 397.377, 346.102 396.827, 345.042 395.550 C 343.648 393.870, 342.709 393.625, 341.667 394.667 M 432.958 395.550 C 431.896 396.831, 431.961 397.390, 433.336 398.764 C 434.888 400.317, 435.112 400.317, 436.664 398.764 C 438.039 397.390, 438.104 396.831, 437.042 395.550 C 436.334 394.698, 435.415 394, 435 394 C 434.585 394, 433.666 394.698, 432.958 395.550 M 453.667 394.667 C 452.617 395.717, 452.888 398.813, 454.096 399.559 C 454.699 399.932, 455.898 399.531, 456.760 398.669 C 458.052 397.377, 458.102 396.827, 457.042 395.550 C 455.648 393.870, 454.709 393.625, 453.667 394.667 M 515.667 394.667 C 514.617 395.717, 514.888 398.813, 516.096 399.559 C 516.699 399.932, 517.898 399.531, 518.760 398.669 C 520.052 397.377, 520.102 396.827, 519.042 395.550 C 517.648 393.870, 516.709 393.625, 515.667 394.667 M 537.958 395.550 C 536.896 396.831, 536.961 397.390, 538.336 398.764 C 539.888 400.317, 540.112 400.317, 541.664 398.764 C 543.039 397.390, 543.104 396.831, 542.042 395.550 C 541.334 394.698, 540.415 394, 540 394 C 539.585 394, 538.666 394.698, 537.958 395.550" stroke="none" fill="#fbfbfb" fill-rule="evenodd"/></svg>