<?xml version="1.0" standalone="no"?>
<!DOCTYPE svg PUBLIC "-//W3C//DTD SVG 20010904//EN"
 "http://www.w3.org/TR/2001/REC-SVG-20010904/DTD/svg10.dtd">
<svg version="1.0" xmlns="http://www.w3.org/2000/svg"
 width="318.000000pt" height="158.000000pt" viewBox="0 0 318.000000 158.000000"
 preserveAspectRatio="xMidYMid meet">

<g transform="translate(0.000000,158.000000) scale(0.100000,-0.100000)"
fill="#000000" stroke="none">
<path d="M1180 1054 c-17 -46 -35 -84 -38 -84 -4 0 -20 36 -35 80 -41 114 -58
109 -55 -17 l2 -98 3 83 c2 45 7 82 11 82 5 0 21 -36 37 -80 16 -44 33 -80 38
-80 8 0 18 21 51 113 26 70 38 59 34 -33 -2 -44 0 -80 5 -80 4 0 7 42 7 94 0
129 -17 134 -60 20z"/>
<path d="M1372 1037 l2 -102 3 83 c2 45 7 82 11 82 4 0 31 -36 60 -80 28 -44
57 -80 62 -80 6 0 9 40 8 103 l-2 102 -3 -87 c-2 -49 -7 -88 -11 -88 -4 0 -29
36 -57 80 -27 44 -56 82 -62 85 -10 3 -13 -20 -11 -98z"/>
<path d="M1660 1120 c-11 -11 -20 -26 -20 -33 0 -22 35 -47 74 -54 42 -7 59
-23 54 -55 -2 -19 -10 -24 -43 -26 -34 -3 -43 1 -62 25 -16 19 -23 23 -23 12
0 -28 37 -52 80 -52 51 0 72 18 68 56 -3 34 -14 42 -76 57 -52 13 -64 36 -33
62 31 25 48 23 76 -8 17 -18 25 -22 25 -12 0 45 -84 64 -120 28z"/>
<path d="M1885 1130 c-44 -3 -63 -7 -42 -8 l37 -2 0 -90 c0 -53 4 -90 10 -90
6 0 10 37 10 90 l0 90 35 0 c19 0 35 5 35 10 0 6 -1 9 -2 8 -2 -1 -39 -5 -83
-8z"/>
<path d="M2063 1133 l-63 -4 0 -94 0 -95 68 2 67 2 -57 3 -58 4 0 39 0 40 50
0 c28 0 50 5 50 10 0 6 -22 10 -50 10 l-50 0 0 35 0 35 55 0 c30 0 55 5 55 10
0 6 -1 9 -2 8 -2 -1 -31 -3 -65 -5z"/>
<path d="M2370 1040 c0 -60 4 -100 10 -100 6 0 10 40 10 100 0 60 -4 100 -10
100 -6 0 -10 -40 -10 -100z"/>
<path d="M2468 1117 c-32 -30 -42 -59 -34 -100 9 -43 28 -66 62 -76 89 -25
153 63 109 149 -28 55 -94 67 -137 27z m85 2 c76 -34 53 -169 -27 -169 -19 0
-40 8 -49 18 -39 43 -29 128 16 150 29 14 32 14 60 1z"/>
<path d="M1304 1035 c0 -55 1 -76 3 -47 2 29 2 74 0 100 -2 26 -3 2 -3 -53z"/>
<path d="M1582 1038 c-1 -54 1 -98 6 -98 4 0 6 30 4 67 -5 119 -9 131 -10 31z"/>
<path d="M2170 1035 c0 -57 4 -95 10 -95 6 0 10 20 10 45 l0 45 43 0 c52 0 67
-13 67 -57 0 -21 5 -33 13 -33 17 0 10 58 -10 81 -12 14 -12 17 2 22 18 8 20
58 3 75 -7 7 -39 12 -75 12 l-63 0 0 -95z m128 68 c20 -39 -5 -63 -65 -63
l-43 0 0 40 0 40 50 0 c37 0 52 -4 58 -17z"/>
<path d="M460 975 l0 -125 74 -55 c41 -30 77 -59 81 -65 3 -5 -30 -36 -74 -67
l-80 -58 -1 -122 c0 -68 2 -123 5 -123 3 0 77 54 165 120 l160 120 0 128 -1
127 -164 123 -165 122 0 -125z"/>
<path d="M2760 910 c-6 -11 -7 -20 -2 -20 5 0 17 9 27 20 16 18 16 20 2 20 -9
0 -21 -9 -27 -20z"/>
<path d="M1930 863 c-41 -12 -61 -29 -70 -62 -20 -73 17 -131 84 -131 46 0 55
5 79 40 21 30 22 72 2 110 -9 17 -17 30 -18 30 -1 0 -16 4 -32 8 -17 5 -37 7
-45 5z m48 -39 c32 -22 32 -96 0 -118 -30 -21 -44 -20 -68 4 -38 38 -14 130
33 130 7 0 23 -7 35 -16z"/>
<path d="M2332 858 c-61 -16 -80 -120 -31 -169 30 -30 99 -26 130 7 33 35 34
102 1 137 -28 30 -55 36 -100 25z m66 -34 c33 -23 32 -97 -3 -120 -69 -45
-129 74 -62 121 27 19 37 19 65 -1z"/>
<path d="M1050 766 l0 -96 49 0 c67 0 92 22 98 86 7 71 -15 96 -90 102 l-57 4
0 -96z m117 58 c7 -10 13 -37 13 -60 0 -51 -34 -84 -86 -84 l-34 0 0 78 c0 43
3 82 8 86 12 13 86 -2 99 -20z"/>
<path d="M1240 765 l0 -95 68 2 67 2 -57 3 -58 4 0 39 0 39 53 4 52 3 -52 2
-53 2 0 40 0 39 58 4 57 3 -67 2 -68 2 0 -95z"/>
<path d="M1480 765 l0 -95 70 0 c56 0 70 3 70 15 0 12 -13 15 -56 15 -54 0
-55 0 -52 28 3 25 7 27 51 30 63 4 61 22 -3 22 -47 0 -50 2 -50 25 0 24 3 25
55 25 42 0 55 3 55 15 0 12 -14 15 -70 15 l-70 0 0 -95z"/>
<path d="M1680 840 c-25 -25 -34 -61 -26 -105 8 -41 38 -65 82 -65 46 0 63 9
80 41 13 26 13 29 -2 29 -9 0 -25 -11 -36 -25 -25 -31 -42 -32 -73 0 -30 30
-32 64 -4 99 24 31 49 33 74 6 19 -21 45 -27 45 -10 0 6 -9 19 -20 30 -27 27
-93 27 -120 0z"/>
<path d="M2075 765 c0 -83 2 -95 17 -95 14 0 18 12 20 68 l3 67 40 -67 c25
-42 47 -68 58 -68 15 0 17 11 17 95 0 76 -3 95 -15 95 -11 0 -15 -16 -17 -66
l-3 -66 -42 66 c-26 41 -49 66 -60 66 -16 0 -18 -10 -18 -95z"/>
<path d="M2490 765 c0 -88 2 -95 20 -95 17 0 19 8 22 68 l3 67 24 -68 c31 -84
47 -84 75 0 12 34 24 65 29 69 4 4 7 -25 7 -64 0 -57 3 -72 15 -72 12 0 15 17
15 95 l0 95 -29 0 c-27 0 -30 -4 -46 -65 -10 -36 -21 -65 -26 -65 -4 0 -17 29
-29 65 -20 60 -24 65 -51 65 l-29 0 0 -95z"/>
<path d="M2740 765 c0 -88 1 -95 20 -95 19 0 20 7 20 95 0 88 -1 95 -20 95
-19 0 -20 -7 -20 -95z"/>
<path d="M2842 773 c-18 -49 -32 -91 -32 -95 0 -17 29 -7 35 12 5 16 15 20 50
20 35 0 45 -4 50 -20 3 -11 14 -20 24 -20 16 0 15 9 -15 85 -19 46 -34 89 -34
95 0 5 -10 10 -23 10 -19 0 -27 -13 -55 -87z m73 0 c6 -31 5 -33 -23 -33 l-30
0 15 40 c18 44 27 42 38 -7z"/>
<path d="M2480 611 c-31 -9 -49 -53 -31 -75 7 -8 35 -22 62 -31 49 -17 59 -31
37 -53 -18 -18 -45 -15 -69 9 -11 11 -28 19 -37 17 -14 -3 -13 -8 10 -31 20
-20 37 -27 65 -27 49 1 73 19 73 57 0 30 -16 44 -70 59 -39 10 -52 24 -39 40
15 19 58 18 65 -1 6 -16 44 -21 44 -7 0 30 -67 56 -110 43z"/>
<path d="M1071 573 c12 -21 29 -47 36 -58 7 -11 13 -36 13 -57 0 -27 4 -38 15
-38 11 0 15 11 15 38 0 21 6 46 13 57 7 11 24 37 36 58 22 36 22 37 3 37 -12
0 -29 -14 -42 -35 -12 -19 -25 -35 -29 -35 -4 0 -15 16 -24 35 -11 24 -24 35
-38 35 l-21 0 23 -37z"/>
<path d="M1310 515 c0 -78 3 -95 15 -95 11 0 15 11 15 40 l0 40 40 0 c29 0 40
4 40 15 0 11 -11 15 -41 15 -38 0 -40 1 -37 28 3 25 6 27 51 27 31 0 47 4 47
13 0 8 -20 12 -65 12 l-65 0 0 -95z"/>
<path d="M1460 515 c0 -78 3 -95 15 -95 12 0 15 17 15 95 0 78 -3 95 -15 95
-12 0 -15 -17 -15 -95z"/>
<path d="M1530 515 c0 -78 3 -95 15 -95 12 0 15 14 15 65 0 36 3 65 8 65 4 0
24 -30 46 -65 25 -43 44 -65 57 -65 17 0 19 8 19 95 0 78 -3 95 -15 95 -12 0
-15 -14 -15 -65 0 -36 -3 -65 -7 -65 -5 0 -25 30 -46 65 -26 45 -44 65 -57 65
-18 0 -20 -7 -20 -95z"/>
<path d="M1743 521 c-18 -48 -33 -91 -33 -95 0 -17 28 -3 38 19 10 20 19 25
51 25 33 0 40 -4 45 -25 4 -15 13 -25 25 -25 17 0 15 8 -17 95 -29 79 -39 95
-56 95 -17 0 -27 -16 -53 -89z m75 2 c11 -32 10 -33 -19 -33 -32 0 -34 3 -18
49 13 36 21 32 37 -16z"/>
<path d="M1900 515 c0 -88 2 -95 20 -95 17 0 19 8 22 68 l3 67 40 -67 c25 -44
46 -68 57 -68 16 0 18 10 18 95 0 76 -3 95 -15 95 -11 0 -15 -16 -17 -66 l-3
-66 -42 66 c-29 46 -48 66 -63 66 -19 0 -20 -6 -20 -95z"/>
<path d="M2090 600 c0 -5 23 -10 50 -10 28 0 50 -3 50 -6 0 -3 -22 -34 -50
-69 -72 -91 -70 -95 45 -95 92 0 96 1 107 25 9 20 18 25 49 25 33 0 40 -4 45
-25 4 -16 13 -25 26 -25 22 0 22 -2 -21 110 -41 107 -58 107 -101 -3 l-33 -83
-56 4 c-31 2 -58 6 -60 8 -2 2 19 30 48 62 71 83 69 92 -24 92 -43 0 -75 -4
-75 -10z m264 -54 c3 -13 9 -31 12 -40 5 -13 -1 -16 -26 -16 -25 0 -31 3 -26
16 3 9 9 27 12 40 8 31 20 31 28 0z"/>
<path d="M1850 325 l0 -25 103 0 c57 0 239 -3 405 -7 l302 -6 0 31 0 32 -405
0 -405 0 0 -25z"/>
</g>
</svg>
