<svg xmlns="http://www.w3.org/2000/svg" width="1019" height="311" viewBox="0 0 1019 311" version="1.1"><path d="M 372.667 67.667 C 371.490 68.843, 371.925 108.816, 373.168 113.751 C 374.718 119.907, 380.902 126.153, 387.189 127.913 C 395.691 130.293, 403.043 127.562, 409.407 119.660 L 412.500 115.819 412.800 91.410 C 413.064 69.902, 412.915 67, 411.550 67 C 410.196 67, 410 69.849, 410 89.532 C 410 114.329, 409.570 116.659, 404.161 121.211 C 395.589 128.424, 383.650 126.607, 377.800 117.200 C 375.601 113.663, 375.485 112.477, 375.169 90.250 C 374.988 77.463, 374.500 67, 374.086 67 C 373.672 67, 373.033 67.300, 372.667 67.667 M 420 97.500 C 420 123.944, 420.199 128, 421.500 128 C 422.798 128, 423 124.193, 423.003 99.750 L 423.007 71.500 439.753 99.500 C 452.763 121.251, 456.946 127.500, 458.500 127.500 C 460.455 127.500, 460.500 126.833, 460.500 97.583 C 460.500 74.742, 460.208 67.569, 459.266 67.255 C 458.310 66.937, 457.971 73.229, 457.766 95.118 L 457.500 123.393 440.617 95.196 C 428.145 74.367, 423.246 67, 421.867 67 C 420.085 67, 420 68.392, 420 97.500 M 467 97.500 C 467 123.944, 467.199 128, 468.500 128 C 469.801 128, 470 123.944, 470 97.500 C 470 71.056, 469.801 67, 468.500 67 C 467.199 67, 467 71.056, 467 97.500 M 477 97.642 L 477 128.283 487.750 127.767 C 499.763 127.190, 504.084 125.811, 510.597 120.474 C 523.776 109.675, 524.590 88.590, 512.303 76.303 C 505.713 69.713, 497.419 67, 483.864 67 L 477 67 477 97.642 M 535.641 96.344 C 525.388 112.540, 517 126.288, 517 126.895 C 517 129.742, 519.523 127.320, 524.182 120 L 529.274 112 542.637 112 L 556 112 556 120.083 C 556 126.106, 556.319 128.060, 557.250 127.750 C 558.213 127.429, 558.500 120.461, 558.500 97.417 C 558.500 67.745, 558.483 67.498, 556.391 67.199 C 554.614 66.945, 551.339 71.545, 535.641 96.344 M 566 97.487 L 566 128.262 576.250 127.714 C 590.110 126.974, 593.293 125.768, 600.656 118.473 C 605.482 113.691, 607.156 111.214, 608.406 107.005 C 611.759 95.714, 609.648 86.059, 601.998 77.688 C 595.167 70.214, 589.505 67.912, 576.289 67.238 L 566 66.713 566 97.487 M 636 97.487 L 636 128.262 646.250 127.714 C 660.110 126.974, 663.293 125.768, 670.656 118.473 C 675.482 113.691, 677.156 111.214, 678.406 107.005 C 681.759 95.714, 679.648 86.059, 671.998 77.688 C 665.167 70.214, 659.505 67.912, 646.289 67.238 L 636 66.713 636 97.487 M 685 97.500 L 685 128 700.500 128 C 713.611 128, 716 127.769, 716 126.500 C 716 125.238, 713.778 125, 702 125 L 688 125 688 112 L 688 99 699 99 C 708.111 99, 710 98.742, 710 97.500 C 710 96.258, 708.111 96, 699 96 L 688 96 688 83 L 688 70 702 70 C 713.778 70, 716 69.762, 716 68.500 C 716 67.231, 713.611 67, 700.500 67 L 685 67 685 97.500 M 721 97.500 L 721 128 736.500 128 C 749.611 128, 752 127.769, 752 126.500 C 752 125.238, 749.778 125, 738 125 L 724 125 724 96 C 724 70.889, 723.799 67, 722.500 67 C 721.199 67, 721 71.056, 721 97.500 M 480 97.491 L 480 125.277 488.796 124.776 C 499 124.194, 504.977 121.957, 510.153 116.781 C 515.785 111.149, 517.500 106.647, 517.500 97.500 C 517.500 88.316, 515.969 84.332, 510.184 78.465 C 504.857 73.062, 499.404 70.961, 488.952 70.284 L 480 69.704 480 97.491 M 569 97.491 L 569 125.277 577.750 124.768 C 587.934 124.176, 592.194 122.626, 597.962 117.415 C 604.521 111.490, 606.465 106.936, 606.465 97.500 C 606.465 88.064, 604.521 83.510, 597.962 77.585 C 592.239 72.414, 588.204 70.948, 577.854 70.278 L 569 69.704 569 97.491 M 639 97.491 L 639 125.277 647.750 124.768 C 657.934 124.176, 662.194 122.626, 667.962 117.415 C 674.521 111.490, 676.465 106.936, 676.465 97.500 C 676.465 88.064, 674.521 83.510, 667.962 77.585 C 662.239 72.414, 658.204 70.948, 647.854 70.278 L 639 69.704 639 97.491 M 543.597 89.367 C 537.219 99.469, 532 108.019, 532 108.367 C 532 108.715, 537.400 109, 544 109 L 556 109 556 90 C 556 79.550, 555.819 71, 555.597 71 C 555.376 71, 549.976 79.265, 543.597 89.367 M 373 182 L 373 212 378 212 L 383 212 383 199.500 L 383 187 387.413 187 L 391.826 187 398.265 199.250 L 404.705 211.500 410.352 211.800 L 415.999 212.100 409.335 199.300 L 402.671 186.500 406.739 182.464 C 414.420 174.844, 414.511 164.405, 406.955 157.578 C 401.927 153.036, 397.756 152.012, 384.250 152.006 L 373 152 373 182 M 420 182 L 420 212 435.500 212 L 451 212 451 207.500 L 451 203 440.500 203 L 430 203 430 195 L 430 187 438 187 L 446 187 446 182 L 446 177 438 177 L 430 177 430 169.500 L 430 162 440.500 162 L 451 162 451 157 L 451 152 435.500 152 L 420 152 420 182 M 475.698 153.384 C 459.739 159.328, 451.710 175.560, 456.594 192.005 C 458.936 199.892, 468.415 209.193, 476.508 211.545 C 483.184 213.486, 491.342 213.137, 497.277 210.658 L 501.051 209.081 500.776 193.290 L 500.500 177.500 490.750 177.214 L 481 176.928 481 181.964 L 481 187 486 187 L 491 187 491 195.116 L 491 203.233 484.521 202.820 C 479.365 202.492, 477.184 201.804, 473.847 199.454 C 461.424 190.703, 462.330 171.861, 475.542 164.231 C 478.855 162.317, 480.711 161.987, 486.935 162.205 L 494.371 162.465 496.125 158.489 C 497.759 154.786, 497.765 154.448, 496.209 153.577 C 493.326 151.964, 479.852 151.837, 475.698 153.384 M 507 181.945 L 507 212 512.015 212 L 517.030 212 516.765 182.250 L 516.500 152.500 511.750 152.195 L 507 151.890 507 181.945 M 533.421 153.896 C 528.763 156.012, 525.628 159.567, 523.958 164.628 C 520.745 174.362, 527.704 182.689, 543.003 187.417 C 550.277 189.666, 553.250 191.995, 553.250 195.446 C 553.250 200.155, 549.841 202.500, 542.995 202.500 C 537.894 202.500, 536.668 202.122, 534.398 199.853 C 531.799 197.253, 531.674 197.233, 527.376 198.697 C 524.969 199.517, 523 200.673, 523 201.265 C 523 201.858, 524.928 204.191, 527.285 206.449 C 535.609 214.425, 547.503 215.176, 556.751 208.310 C 560.937 205.202, 563 201.139, 563 196 C 563 186.762, 558.154 182.335, 541.616 176.466 C 532.999 173.407, 530.796 169.113, 535.455 164.455 C 537.446 162.463, 538.914 162, 543.232 162 C 546.509 162, 549.439 162.619, 550.856 163.612 C 553.043 165.143, 553.315 165.081, 556.324 162.362 C 558.065 160.788, 559.669 159.398, 559.888 159.274 C 560.889 158.705, 557.115 155.508, 553.500 153.863 C 548.194 151.450, 538.774 151.465, 533.421 153.896 M 568 156.976 L 568 162 574 162 L 580 162 580 187 L 580 212 585 212 L 590 212 590 187 L 590 162 596.555 162 L 603.110 162 602.805 157.250 L 602.500 152.500 585.250 152.226 L 568 151.953 568 156.976 M 609.750 152.577 C 609.337 152.993, 609 166.533, 609 182.667 L 609 212 614 212 L 619 212 619 199.500 L 619 187 623.750 187.016 L 628.500 187.033 634.929 199.516 L 641.358 212 646.679 212 C 649.605 212, 652 211.784, 652 211.519 C 652 211.255, 649.058 205.447, 645.462 198.614 L 638.924 186.190 641.985 184.011 C 649.425 178.713, 651.188 166.868, 645.622 159.571 C 641.048 153.574, 638.122 152.597, 623.500 152.187 C 616.350 151.986, 610.163 152.162, 609.750 152.577 M 673.005 153.685 C 666.711 155.988, 657.836 165.075, 655.676 171.428 C 648.978 191.125, 661.548 210.879, 681.958 212.730 C 694.014 213.823, 706.641 206.494, 712.075 195.251 C 715.430 188.311, 715.430 176.390, 712.077 169.577 C 709.128 163.585, 703.546 157.838, 697.791 154.869 C 692.080 151.922, 679.468 151.320, 673.005 153.685 M 748.970 154.250 C 742.654 157.441, 740 161.848, 740 169.145 C 740 174.431, 740.339 175.369, 743.518 178.888 C 746.862 182.589, 749.444 183.910, 762.292 188.489 C 770.600 191.451, 772.048 197.301, 765.529 201.573 C 761.619 204.135, 753.318 203.070, 750.355 199.627 L 748.093 196.997 743.510 198.797 L 738.928 200.597 741.215 204.049 C 744.122 208.436, 752.908 213.002, 758.429 212.994 C 765 212.985, 770.201 211.035, 774.131 207.104 C 784.618 196.617, 779.107 183.500, 761.886 177.963 C 752.811 175.045, 748.619 171.715, 749.472 168.101 C 750.445 163.974, 753.580 162, 759.160 162 C 761.877 162, 765.414 162.680, 767.021 163.511 C 769.817 164.957, 770.084 164.897, 773.188 162.124 C 776.118 159.506, 776.290 159.054, 774.966 157.454 C 770.386 151.921, 756.876 150.256, 748.970 154.250 M 804.365 153.030 C 795.773 155.681, 786.413 165.253, 784.033 173.823 C 781.139 184.242, 784.140 195.764, 791.766 203.514 C 798.491 210.347, 803.644 212.470, 813.500 212.470 C 823.333 212.470, 828.958 210.177, 835.409 203.541 C 846.567 192.059, 846.849 174.010, 836.063 161.724 C 830.984 155.940, 823.686 152.688, 815.038 152.354 C 810.892 152.194, 806.089 152.498, 804.365 153.030 M 868.500 153.328 C 859.483 156.864, 852.243 163.905, 849.575 171.734 C 842.320 193.026, 859.015 214.727, 881.110 212.724 C 884.275 212.437, 887.345 211.905, 887.932 211.542 C 888.519 211.179, 889 208.610, 889 205.834 C 889 201.412, 888.783 200.877, 887.250 201.524 C 883.891 202.939, 875.196 203.220, 871.587 202.029 C 866.685 200.411, 862.343 196.594, 859.853 191.711 C 858.226 188.523, 857.871 186.283, 858.166 181.064 C 858.584 173.662, 860.609 169.927, 866.739 165.248 C 869.935 162.809, 871.192 162.500, 877.920 162.500 C 882.089 162.500, 886.288 162.886, 887.250 163.357 C 888.801 164.116, 889 163.629, 889 159.082 C 889 154.494, 888.728 153.847, 886.435 152.975 C 882.979 151.661, 872.211 151.873, 868.500 153.328 M 896 182 L 896 212 900.500 212 L 905 212 905 182 L 905 152 900.500 152 L 896 152 896 182 M 928.681 181.466 C 918.407 197.721, 910 211.241, 910 211.510 C 910 211.780, 912.468 212, 915.485 212 L 920.969 212 925.074 205.500 L 929.179 199 939.090 199 L 949 199 949 205.500 L 949 212 954.015 212 L 959.030 212 958.765 182.250 L 958.500 152.500 952.931 152.206 L 947.363 151.911 928.681 181.466 M 968 182 L 968 212 983.500 212 L 999 212 999 207.500 L 999 203 988.500 203 L 978 203 978 177.500 L 978 152 973 152 L 968 152 968 182 M 383 170 L 383 178 389.453 178 C 397.239 178, 400.475 176.683, 402.054 172.870 C 402.972 170.653, 402.972 169.347, 402.054 167.130 C 400.475 163.317, 397.239 162, 389.453 162 L 383 162 383 170 M 619 170.106 L 619 178.212 627.098 177.844 C 634.148 177.524, 635.442 177.172, 637.098 175.127 C 639.918 171.645, 639.584 166.605, 636.365 164.073 C 634.241 162.402, 632.302 162, 626.365 162 L 619 162 619 170.106 M 675.500 163.567 C 667.629 167.646, 663.584 174.413, 663.779 183.175 C 664.029 194.404, 673.014 203, 684.500 203 C 690.456 203, 694.847 201.088, 699.213 196.592 C 708.416 187.117, 706.019 170.823, 694.458 164.275 C 689.640 161.546, 680.089 161.189, 675.500 163.567 M 804.500 163.659 C 796.381 167.931, 792.438 175.213, 793.209 184.509 C 794.778 203.425, 819.427 209.808, 830.454 194.153 C 832.784 190.844, 833.493 188.624, 833.810 183.636 C 834.390 174.537, 830.722 167.971, 822.790 163.903 C 818.189 161.543, 808.759 161.417, 804.500 163.659 M 942.500 177.702 C 939.200 183.003, 936.350 187.713, 936.167 188.170 C 935.983 188.626, 938.796 189, 942.417 189 L 949 189 949 178.500 C 949 172.725, 948.888 168.015, 948.750 168.032 C 948.612 168.050, 945.800 172.401, 942.500 177.702 M 635.310 235.500 C 635.315 238.800, 635.502 240.029, 635.725 238.232 C 635.947 236.435, 635.943 233.735, 635.715 232.232 C 635.486 230.729, 635.304 232.200, 635.310 235.500" stroke="none" fill="#76777b" fill-rule="evenodd"/><path d="M 45.265 109.846 L 22.030 123.500 22.015 151.100 L 22 178.701 45.393 192.321 L 68.785 205.942 84.643 196.843 C 93.364 191.839, 100.876 187.404, 101.335 186.988 C 101.794 186.571, 100.804 182.241, 99.135 177.365 C 95.137 165.685, 93.638 153.393, 94.942 142.993 C 96.049 134.161, 98.179 125.208, 100.489 119.681 C 101.320 117.692, 102 115.863, 102 115.618 C 102 115.160, 69.255 95.923, 68.770 96.096 C 68.621 96.149, 58.044 102.336, 45.265 109.846 M 105.576 123.771 C 99.340 142.545, 99.546 162.777, 106.129 178.078 L 108.243 182.992 112.121 180.812 L 116 178.632 116 171.142 L 116 163.651 118.532 166.030 C 122.356 169.623, 132.216 170.056, 136.908 166.838 C 141.953 163.377, 144.223 159.734, 144.750 154.251 C 145.971 141.543, 133.421 132.624, 121.647 137.832 L 117 139.888 117 131.986 L 117 124.084 112.662 121.542 C 110.276 120.144, 108.062 119, 107.743 119 C 107.423 119, 106.448 121.147, 105.576 123.771 M 144.401 175.905 C 138.856 178.424, 135.744 183.038, 135.205 189.542 L 134.772 194.767 127.780 190.736 L 120.788 186.705 116.394 188.839 C 113.977 190.013, 112 191.394, 112 191.906 C 112 193.586, 122.013 203.839, 128.323 208.621 C 138.483 216.321, 155.028 222.936, 164.250 222.985 C 166.873 222.999, 167 222.777, 167 218.159 C 167 213.379, 166.937 213.283, 162 210.597 C 159.250 209.100, 157.017 207.566, 157.039 207.188 C 157.060 206.809, 158.485 205.600, 160.205 204.500 C 165.106 201.366, 167.287 197.673, 167.706 191.791 C 168.211 184.721, 165.229 179.377, 159.034 176.250 C 153.642 173.528, 149.833 173.439, 144.401 175.905 M 88.765 204.359 L 73.031 213.500 73.015 241.119 L 73 268.737 96.670 282.399 L 120.341 296.060 144.170 282.465 L 168 268.870 168 249.496 L 168 230.123 163.250 229.466 C 143.106 226.681, 122.450 215.312, 110.855 200.628 C 108.460 197.594, 106.050 195.136, 105.500 195.165 C 104.950 195.195, 97.419 199.332, 88.765 204.359 M 636 235.500 L 636 241 702.500 241 L 769 241 769 235.500 L 769 230 702.500 230 L 636 230 636 235.500" stroke="none" fill="#0055a3" fill-rule="evenodd"/><path d="M 262.824 105.318 C 254.203 110.378, 246.874 114.793, 246.538 115.129 C 246.202 115.465, 246.790 117.936, 247.845 120.620 C 250.023 126.164, 252.602 137.789, 253.508 146.157 C 254.345 153.882, 252.459 166.724, 248.934 177.307 C 247.320 182.151, 246 186.280, 246 186.482 C 246 187.129, 278.276 205.334, 279.411 205.327 C 280.010 205.324, 290.738 199.347, 303.250 192.044 L 326 178.766 325.986 151.133 L 325.972 123.500 302.875 110 C 290.172 102.575, 279.491 96.414, 279.139 96.309 C 278.788 96.204, 271.446 100.258, 262.824 105.318 M 235.250 121.566 L 231 124.113 231 132 L 231 139.888 226.353 137.832 C 217.888 134.087, 208.954 137.332, 204.949 145.606 C 201.058 153.644, 203.336 161.518, 211.092 166.838 C 215.784 170.056, 225.644 169.623, 229.468 166.030 L 232 163.651 232 171.142 L 232 178.632 235.879 180.812 L 239.757 182.992 241.871 178.078 C 246.709 166.833, 248.440 149.222, 245.929 136.799 C 244.518 129.821, 241.014 118.997, 240.168 119.009 C 239.801 119.015, 237.588 120.165, 235.250 121.566 M 187.401 175.905 C 181.684 178.502, 178.692 183.070, 178.212 189.935 C 177.890 194.543, 178.231 196.102, 180.199 199 C 181.506 200.925, 184.003 203.400, 185.749 204.500 C 187.495 205.600, 188.940 206.795, 188.961 207.155 C 188.983 207.515, 186.525 209.206, 183.500 210.913 C 178.075 213.975, 178 214.080, 178 218.638 L 178 223.258 184.250 222.563 C 198.718 220.955, 213.810 213.192, 226.195 200.989 C 230.488 196.759, 234 192.843, 234 192.288 C 234 191.732, 232.041 190.239, 229.646 188.968 L 225.292 186.659 218.146 190.779 L 211 194.899 210.984 190.699 C 210.960 184.634, 207.465 178.991, 202.034 176.250 C 196.642 173.528, 192.833 173.439, 187.401 175.905 M 235.145 200.628 C 223.277 215.657, 203.693 226.259, 181.750 229.531 L 178 230.091 178 249.480 L 178 268.870 201.805 282.451 L 225.609 296.031 249.305 282.371 L 273 268.710 272.995 241.105 L 272.989 213.500 256.696 204.250 C 247.735 199.162, 240.200 195.025, 239.952 195.056 C 239.703 195.087, 237.540 197.594, 235.145 200.628 M 769 235.500 L 769 241 836.500 241 L 904 241 904 235.500 L 904 230 836.500 230 L 769 230 769 235.500" stroke="none" fill="#ec1c24" fill-rule="evenodd"/><path d="M 96.500 19.444 L 73.500 32.789 73.500 60.601 L 73.500 88.414 89.500 97.679 L 105.500 106.944 112.350 99.452 C 125.921 84.607, 144.187 74.745, 162.306 72.481 L 168.041 71.764 167.771 52.276 L 167.500 32.787 144.500 19.443 C 131.850 12.104, 121.050 6.100, 120.500 6.100 C 119.950 6.100, 109.150 12.105, 96.500 19.444 M 201.500 19.322 L 178.500 32.584 178.229 52.174 L 177.959 71.764 183.694 72.481 C 201.947 74.762, 220.421 84.837, 234.231 100.044 L 240.500 106.948 256.500 97.660 L 272.500 88.372 272.500 60.618 L 272.500 32.863 250 19.805 C 237.625 12.622, 226.825 6.592, 226 6.403 C 225.175 6.215, 214.150 12.028, 201.500 19.322 M 154 80.600 C 146.316 82.651, 136.795 87.255, 129.607 92.397 C 123.544 96.734, 112 108.077, 112 109.697 C 112 110.161, 113.957 111.611, 116.348 112.917 L 120.697 115.293 127.598 111.152 L 134.500 107.011 135.044 111.756 C 135.775 118.123, 138.184 122.332, 142.691 125.118 C 147.679 128.201, 155.219 128.264, 160.073 125.264 C 166.877 121.059, 170.046 110.816, 166.589 104.200 C 165.088 101.326, 160.641 96.870, 157.754 95.346 C 156.295 94.576, 156.908 93.940, 161.501 91.463 C 166.969 88.513, 166.993 88.479, 166.997 83.750 L 167 79 163.250 79.066 C 161.188 79.102, 157.025 79.792, 154 80.600 M 178 83.442 C 178 87.825, 178.079 87.929, 183.954 91.240 L 189.908 94.595 186.381 96.494 C 184.441 97.539, 181.761 100.257, 180.427 102.535 C 173.851 113.755, 181.567 127.435, 194.465 127.424 C 203.507 127.417, 209.957 121.333, 210.992 111.836 L 211.500 107.171 218.410 111.227 L 225.320 115.284 229.660 112.913 C 232.047 111.609, 234 110.161, 234 109.697 C 234 108.077, 222.456 96.734, 216.393 92.397 C 205.686 84.738, 190.865 79, 181.790 79 L 178 79 178 83.442 M 167.421 135.896 C 151.052 143.331, 156.069 167.231, 174 167.231 C 191.991 167.231, 197.003 143.356, 180.579 135.896 C 178.335 134.878, 175.375 134.044, 174 134.044 C 172.625 134.044, 169.665 134.878, 167.421 135.896 M 367 235.500 L 367 241 501 241 L 635 241 635 235.500 L 635 230 501 230 L 367 230 367 235.500" stroke="none" fill="#ffce01" fill-rule="evenodd"/></svg>